<svg style="max-height: 500px" color-interpolation-filters="sRGB" preserveAspectRatio="xMidYMid meet" viewBox="40.5 99.5 260 51" xmlns:xlink="http://www.w3.org/1999/xlink" xmlns="http://www.w3.org/2000/svg" version="1.0" data-v-0dd9719b="" width="260" height="51">
	<g transform="translate(42.44000244140625,100.94000053405762)" class="iconbordersvg" fill="rgb(56, 233, 166)" data-v-0dd9719b="">
		<g data-gra="graph-icon-name">
			<g>
				<rect stroke="#38e9a6" fill-opacity="0" height="48.119998931884766" width="255.1199951171875" y="0" x="0" class="i-icon-bg" stroke-width="0" data-gra="graph-name-bg"/>
				
				
			</g>
			<g transform="translate(0,0)">
				<g mask="url(#2596d7e5-c0fc-4c0f-bf4a-6188c9bb52bd)" transform="translate(0,0)" data-gra="graph-icon">
					<g>
						<rect class="i-icon-bg" stroke-width="2" data-gra="graph-name-bg"/>
						<polyline points="10,0 76,0 66,48.119998931884766 0,48.119998931884766, 10,0" stroke="#38e9a6" fill-opacity="1" height="48.119998931884766" width="76" y="0" x="0" fill="rgb(56, 233, 166)" stroke-width="0" data-gra="graph-name-bg"/>
						
					</g>
					<g transform="translate(15,6.471733093261719)">
						<g class="iconsvg-imagesvg">
							<g>
								
								<svg style="overflow: visible;" class="image-svg-svg primary" height="35.176532664469406" width="46" y="0" x="0" filter="url(#colors4633575178)">
									<svg y="0px" x="0px" viewBox="0 0 68 52" xmlns="http://www.w3.org/2000/svg">
										<path transform="translate(-656 -68)" d="M672.991699,91 L687.997766,91 C689.249703,91 690.5495,89.9263455 690.783,88.7004712 L694.035323,69.6257758 C694.215,68.68247 695.039735,68 696,68 L722,68 C723.104569,68 724,68.8954305 724,70 L724,109 L656.012685,108.998844 C656.311766,97.2936395 661.901607,91 672.991699,91 Z M700,80 C701.104569,80 702,79.1045695 702,78 C702,76.8954305 701.104569,76 700,76 C698.895431,76 698,76.8954305 698,78 C698,79.1045695 698.895431,80 700,80 Z M698,89 C699.104569,89 700,88.1045695 700,87 C700,85.8954305 699.104569,85 698,85 C696.895431,85 696,85.8954305 696,87 C696,88.1045695 696.895431,89 698,89 Z M694,97 C695.104569,97 696,96.1045695 696,95 C696,93.8954305 695.104569,93 694,93 C692.895431,93 692,93.8954305 692,95 C692,96.1045695 692.895431,97 694,97 Z M685,100 C686.104569,100 687,99.1045695 687,98 C687,96.8954305 686.104569,96 685,96 C683.895431,96 683,96.8954305 683,98 C683,99.1045695 683.895431,100 685,100 Z M711,98 C714.865993,98 718,94.8659932 718,91 C718,87.1340068 714.865993,84 711,84 C707.134007,84 704,87.1340068 704,91 C704,94.8659932 707.134007,98 711,98 Z M711,94 C709.343146,94 708,92.6568542 708,91 C708,89.3431458 709.343146,88 711,88 C712.656854,88 714,89.3431458 714,91 C714,92.6568542 712.656854,94 711,94 Z M724,112 L724,118 C724,119.104569 723.104569,120 722,120 L658,120 C656.895431,120 656,119.104569 656,118 L656,112 L724,112 Z" fill-rule="evenodd"/>
									</svg>
								</svg>
								<defs>
									<filter id="colors4633575178">
										<feColorMatrix class="icon-fecolormatrix" values="0 0 0 0 0.91015625  0 0 0 0 0.80078125  0 0 0 0 0.69921875  0 0 0 1 0" type="matrix"/>
									</filter>
									<filter id="colorsf3746904201">
										<feColorMatrix class="icon-fecolormatrix" values="0 0 0 0 0.99609375  0 0 0 0 0.99609375  0 0 0 0 0.99609375  0 0 0 1 0" type="matrix"/>
									</filter>
									<filter id="colorsb3926171427">
										<feColorMatrix class="icon-fecolormatrix" values="0 0 0 0 0  0 0 0 0 0  0 0 0 0 0  0 0 0 1 0" type="matrix"/>
									</filter>
								</defs>
							</g>
						</g>
					</g>
				</g>
				<g mask="url(#058e5bd0-b7d7-4402-8339-17c7d5d443d2)" transform="translate(78,0)" data-gra="graph-name">
					<g>
						<rect class="i-icon-bg" stroke-width="2" data-gra="graph-name-bg"/>
						<polyline points="0,0 177.1199951171875,0 167.1199951171875,48.119998931884766 -10,48.119998931884766, 0,0" stroke="#38e9a6" fill-opacity="1" height="48.119998931884766" width="167.1199951171875" y="0" x="0" stroke-width="0" data-gra="graph-name-bg"/>
						
					</g>
					<g transform="translate(5,5)">
						<g class="tp-name" fill-rule="" data-gra="path-name">
							<g transform="scale(1)">
								<g>
									<path transform="translate(-1.6600000858306885, 37.77000045776367)" d="M1.66 0L9.22 0 9.22-17.05 16.31-17.05 16.31-24.26 9.22-24.26 9.22-30.25 16.7-30.25 16.7-37.55 1.66-37.55ZM28.28-32.35C22.31-32.35 18.71-28.42 18.71-22.43L18.71-9.57C18.71-2.96 21.9 0.35 28.28 0.35 34.67 0.35 37.86-2.96 37.86-9.57L37.86-22.43C37.86-28.42 34.26-32.35 28.28-32.35ZM28.28-5.55C26.96-5.55 26.49-6.62 26.49-8L26.49-23.65C26.49-25.52 27.09-26.45 28.28-26.45 29.48-26.45 30.08-25.52 30.08-23.65L30.08-8C30.08-6.62 29.6-5.55 28.28-5.55ZM50.01-32.35C44.04-32.35 40.44-28.42 40.44-22.43L40.44-9.57C40.44-2.96 43.63 0.35 50.01 0.35 56.39 0.35 59.58-2.96 59.58-9.57L59.58-22.43C59.58-28.42 55.98-32.35 50.01-32.35ZM50.01-5.55C48.69-5.55 48.22-6.62 48.22-8L48.22-23.65C48.22-25.52 48.82-26.45 50.01-26.45 51.21-26.45 51.8-25.52 51.8-23.65L51.8-8C51.8-6.62 51.33-5.55 50.01-5.55ZM69.03 0.35C70.36 0.35 72.38 0.04 73.36-0.22L73.36-5.46C73.03-5.46 72.41-5.38 72-5.38 71.15-5.38 71.17-6.06 71.17-6.99L71.17-24.96 73.36-24.96 73.36-30.78 71.17-30.78 71.17-37.55 63.74-37.55 63.74-30.78 61.6-30.78 61.6-24.96 63.74-24.96 63.74-4.98C63.74-1.13 65.09 0.35 69.03 0.35ZM75.89 0L83.45 0 83.45-17.05 90.54-17.05 90.54-24.26 83.45-24.26 83.45-30.25 90.93-30.25 90.93-37.55 75.89-37.55ZM93.2 0L100.98 0 100.98-37.77 93.2-37.77ZM109.86 0.35C112.49 0.35 113.98-1.58 114.62-3.8L114.62 0 122.23 0 122.23-24.39C122.23-29.54 118.45-32.35 113.27-32.35 106.75-32.35 103.87-30.05 103.87-23.61L103.87-22.56 111.3-22.56 111.3-24.48C111.3-25.55 111.86-26.58 112.83-26.58 114-26.58 114.54-25.3 114.54-23.96L114.54-20.68 112.44-19.98C110.05-19.22 108.27-18.53 107.1-17.9 104.41-16.46 103.39-13.65 103.39-9.18 103.39-3.6 104.53 0.35 109.86 0.35ZM112.87-5.6C111.74-5.6 111.17-6.54 111.17-8.44L111.17-12.55C111.17-15.19 112.45-16.22 114.49-17.01L114.49-8.09C114.49-6.81 114.11-5.6 112.87-5.6ZM138.32-26.01L138.32-32.39C135.36-32.39 133.52-30.81 132.81-28.46L132.81-32 125.16-32 125.16 0 132.81 0 132.81-24.48C132.81-25.53 137.09-26.01 138.32-26.01ZM149.16 0.35C156.38 0.35 158.78-3.23 158.78-10.54L158.78-12.37 151.17-12.37 151.17-9.27C151.17-7.33 151.26-5.55 149.42-5.55 147.72-5.55 147.58-7.24 147.58-9.09L147.58-15.3 158.69-15.3C158.75-16.76 158.78-18.65 158.78-20.98L158.78-23.3C158.78-29.33 155.7-32.35 149.55-32.35 143.57-32.35 139.93-29.25 139.93-23.3L139.93-10.45C139.93-3.52 142.35 0.35 149.16 0.35ZM151.17-19.1L147.54-19.1 147.54-23.21C147.54-25.52 148.18-26.67 149.46-26.67 150.6-26.67 151.17-25.52 151.17-23.21Z"/>
								</g>
								
								
								
								
								
								
								
							</g>
						</g>
						
					</g>
				</g>
			</g>
		</g>
	</g>
	<mask id="2596d7e5-c0fc-4c0f-bf4a-6188c9bb52bd">
		<g fill="white">
			<rect class="i-icon-bg" stroke-width="2" data-gra="graph-name-bg"/>
			<polyline points="10,0 76,0 66,48.119998931884766 0,48.119998931884766, 10,0" stroke="#38e9a6" fill-opacity="1" height="48.119998931884766" width="76" y="0" x="0" stroke-width="0" data-gra="graph-name-bg"/>
		</g>
		<g fill="black" transform="translate(15,6.471733093261719)">
			<g class="iconsvg-imagesvg">
				<g>
					<svg filter="url(#colorsb3926171427)" style="overflow: visible;" class="image-svg-svg primary" height="35.176532664469406" width="46" y="0" x="0">
						<svg y="0px" x="0px" viewBox="0 0 68 52" xmlns="http://www.w3.org/2000/svg">
							<path transform="translate(-656 -68)" d="M672.991699,91 L687.997766,91 C689.249703,91 690.5495,89.9263455 690.783,88.7004712 L694.035323,69.6257758 C694.215,68.68247 695.039735,68 696,68 L722,68 C723.104569,68 724,68.8954305 724,70 L724,109 L656.012685,108.998844 C656.311766,97.2936395 661.901607,91 672.991699,91 Z M700,80 C701.104569,80 702,79.1045695 702,78 C702,76.8954305 701.104569,76 700,76 C698.895431,76 698,76.8954305 698,78 C698,79.1045695 698.895431,80 700,80 Z M698,89 C699.104569,89 700,88.1045695 700,87 C700,85.8954305 699.104569,85 698,85 C696.895431,85 696,85.8954305 696,87 C696,88.1045695 696.895431,89 698,89 Z M694,97 C695.104569,97 696,96.1045695 696,95 C696,93.8954305 695.104569,93 694,93 C692.895431,93 692,93.8954305 692,95 C692,96.1045695 692.895431,97 694,97 Z M685,100 C686.104569,100 687,99.1045695 687,98 C687,96.8954305 686.104569,96 685,96 C683.895431,96 683,96.8954305 683,98 C683,99.1045695 683.895431,100 685,100 Z M711,98 C714.865993,98 718,94.8659932 718,91 C718,87.1340068 714.865993,84 711,84 C707.134007,84 704,87.1340068 704,91 C704,94.8659932 707.134007,98 711,98 Z M711,94 C709.343146,94 708,92.6568542 708,91 C708,89.3431458 709.343146,88 711,88 C712.656854,88 714,89.3431458 714,91 C714,92.6568542 712.656854,94 711,94 Z M724,112 L724,118 C724,119.104569 723.104569,120 722,120 L658,120 C656.895431,120 656,119.104569 656,118 L656,112 L724,112 Z" fill-rule="evenodd"/>
						</svg>
					</svg>
					<defs/>
				</g>
			</g>
		</g>
	</mask>
	<mask id="058e5bd0-b7d7-4402-8339-17c7d5d443d2">
		<g fill="white">
			<rect class="i-icon-bg" stroke-width="2" data-gra="graph-name-bg"/>
			<polyline points="0,0 177.1199951171875,0 167.1199951171875,48.119998931884766 -10,48.119998931884766, 0,0" stroke="#38e9a6" fill-opacity="1" height="48.119998931884766" width="167.1199951171875" y="0" x="0" stroke-width="0" data-gra="graph-name-bg"/>
		</g>
		<g fill="black" transform="translate(5,5)">
			<g class="tp-name" fill-rule="" data-gra="path-name">
				<g transform="scale(1)">
					<g>
						<path transform="translate(-1.6600000858306885, 37.77000045776367)" d="M1.66 0L9.22 0 9.22-17.05 16.31-17.05 16.31-24.26 9.22-24.26 9.22-30.25 16.7-30.25 16.7-37.55 1.66-37.55ZM28.28-32.35C22.31-32.35 18.71-28.42 18.71-22.43L18.71-9.57C18.71-2.96 21.9 0.35 28.28 0.35 34.67 0.35 37.86-2.96 37.86-9.57L37.86-22.43C37.86-28.42 34.26-32.35 28.28-32.35ZM28.28-5.55C26.96-5.55 26.49-6.62 26.49-8L26.49-23.65C26.49-25.52 27.09-26.45 28.28-26.45 29.48-26.45 30.08-25.52 30.08-23.65L30.08-8C30.08-6.62 29.6-5.55 28.28-5.55ZM50.01-32.35C44.04-32.35 40.44-28.42 40.44-22.43L40.44-9.57C40.44-2.96 43.63 0.35 50.01 0.35 56.39 0.35 59.58-2.96 59.58-9.57L59.58-22.43C59.58-28.42 55.98-32.35 50.01-32.35ZM50.01-5.55C48.69-5.55 48.22-6.62 48.22-8L48.22-23.65C48.22-25.52 48.82-26.45 50.01-26.45 51.21-26.45 51.8-25.52 51.8-23.65L51.8-8C51.8-6.62 51.33-5.55 50.01-5.55ZM69.03 0.35C70.36 0.35 72.38 0.04 73.36-0.22L73.36-5.46C73.03-5.46 72.41-5.38 72-5.38 71.15-5.38 71.17-6.06 71.17-6.99L71.17-24.96 73.36-24.96 73.36-30.78 71.17-30.78 71.17-37.55 63.74-37.55 63.74-30.78 61.6-30.78 61.6-24.96 63.74-24.96 63.74-4.98C63.74-1.13 65.09 0.35 69.03 0.35ZM75.89 0L83.45 0 83.45-17.05 90.54-17.05 90.54-24.26 83.45-24.26 83.45-30.25 90.93-30.25 90.93-37.55 75.89-37.55ZM93.2 0L100.98 0 100.98-37.77 93.2-37.77ZM109.86 0.35C112.49 0.35 113.98-1.58 114.62-3.8L114.62 0 122.23 0 122.23-24.39C122.23-29.54 118.45-32.35 113.27-32.35 106.75-32.35 103.87-30.05 103.87-23.61L103.87-22.56 111.3-22.56 111.3-24.48C111.3-25.55 111.86-26.58 112.83-26.58 114-26.58 114.54-25.3 114.54-23.96L114.54-20.68 112.44-19.98C110.05-19.22 108.27-18.53 107.1-17.9 104.41-16.46 103.39-13.65 103.39-9.18 103.39-3.6 104.53 0.35 109.86 0.35ZM112.87-5.6C111.74-5.6 111.17-6.54 111.17-8.44L111.17-12.55C111.17-15.19 112.45-16.22 114.49-17.01L114.49-8.09C114.49-6.81 114.11-5.6 112.87-5.6ZM138.32-26.01L138.32-32.39C135.36-32.39 133.52-30.81 132.81-28.46L132.81-32 125.16-32 125.16 0 132.81 0 132.81-24.48C132.81-25.53 137.09-26.01 138.32-26.01ZM149.16 0.35C156.38 0.35 158.78-3.23 158.78-10.54L158.78-12.37 151.17-12.37 151.17-9.27C151.17-7.33 151.26-5.55 149.42-5.55 147.72-5.55 147.58-7.24 147.58-9.09L147.58-15.3 158.69-15.3C158.75-16.76 158.78-18.65 158.78-20.98L158.78-23.3C158.78-29.33 155.7-32.35 149.55-32.35 143.57-32.35 139.93-29.25 139.93-23.3L139.93-10.45C139.93-3.52 142.35 0.35 149.16 0.35ZM151.17-19.1L147.54-19.1 147.54-23.21C147.54-25.52 148.18-26.67 149.46-26.67 150.6-26.67 151.17-25.52 151.17-23.21Z"/>
					</g>
				</g>
			</g>
		</g>
	</mask>
	<defs/>
</svg>